<svg height="64" preserveAspectRatio="none" viewBox="0 0 64 64" width="64" xmlns="http://www.w3.org/2000/svg" xmlns:xlink="http://www.w3.org/1999/xlink"><linearGradient id="a" gradientUnits="userSpaceOnUse" x1="32" x2="32" y1="2" y2="62"><stop offset="0" stop-color="#b2b2b3"/><stop offset="1" stop-color="#3e3a39"/></linearGradient><linearGradient id="b" gradientUnits="userSpaceOnUse" x1="32" x2="32" y1="2" y2="62"><stop offset="0" stop-color="#fff"/><stop offset="1" stop-color="#3e3a39"/></linearGradient><linearGradient id="c"><stop offset="0" stop-color="#c6c7c8"/><stop offset="1" stop-color="#717071"/></linearGradient><linearGradient id="d" gradientUnits="userSpaceOnUse" x1="32" x2="32" xlink:href="#c" y1="15.5" y2="6"/><linearGradient id="e" gradientUnits="userSpaceOnUse" x1="16" x2="16" xlink:href="#c" y1="19" y2="27.5"/><linearGradient id="f" gradientUnits="userSpaceOnUse" x1="26.666504" x2="26.666504" xlink:href="#c" y1="19" y2="27.5"/><linearGradient id="g" gradientUnits="userSpaceOnUse" x1="37.333008" x2="37.333008" xlink:href="#c" y1="19" y2="27.5"/><linearGradient id="h" gradientUnits="userSpaceOnUse" x1="16" x2="16" xlink:href="#c" y1="29" y2="37.5"/><linearGradient id="i" gradientUnits="userSpaceOnUse" x1="26.666504" x2="26.666504" xlink:href="#c" y1="29" y2="37.5"/><linearGradient id="j" gradientUnits="userSpaceOnUse" x1="37.333008" x2="37.333008" xlink:href="#c" y1="29" y2="37.5"/><linearGradient id="k" gradientUnits="userSpaceOnUse" x1="16" x2="16" xlink:href="#c" y1="39" y2="47.5"/><linearGradient id="l" gradientUnits="userSpaceOnUse" x1="26.666504" x2="26.666504" xlink:href="#c" y1="39" y2="47.5"/><linearGradient id="m" gradientUnits="userSpaceOnUse" x1="37.333008" x2="37.333008" xlink:href="#c" y1="39" y2="47.5"/><linearGradient id="n" gradientUnits="userSpaceOnUse" x1="16" x2="16" xlink:href="#c" y1="49" y2="57.5"/><linearGradient id="o" gradientUnits="userSpaceOnUse" x1="26.666504" x2="26.666504" xlink:href="#c" y1="49" y2="57.5"/><linearGradient id="p" gradientUnits="userSpaceOnUse" x1="37.333008" x2="37.333008" xlink:href="#c" y1="49" y2="57.5"/><linearGradient id="q" gradientUnits="userSpaceOnUse" x1="48" x2="48" xlink:href="#c" y1="39" y2="57.5"/><linearGradient id="r" gradientUnits="userSpaceOnUse" x1="48" x2="48" xlink:href="#c" y1="19" y2="27.5"/><linearGradient id="s" gradientUnits="userSpaceOnUse" x1="48" x2="48" xlink:href="#c" y1="29" y2="37.5"/><path d="m51 62h-38c-3.3137083 0-6-2.6862907-6-6v-48c0-3.3137083 2.6862917-6 6-6h38c3.3137093 0 6 2.6862917 6 6v48c0 3.3137093-2.6862907 6-6 6z" fill="url(#a)"/><path d="m51 4c2.2056122 0 4 1.7943878 4 4v48c0 2.2056122-1.7943878 4-4 4h-38c-2.2056122 0-4-1.7943878-4-4v-48c0-2.2056122 1.7943878-4 4-4zm0-2h-38c-3.3137121 0-6 2.6862869-6 6v48c0 3.3137131 2.6862879 6 6 6h38c3.3137131 0 6-2.6862869 6-6v-48c0-3.3137131-2.6862869-6-6-6z" fill="url(#b)"/><path d="m51 3c2.7570114 0 5 2.2429886 5 5v48c0 2.7570114-2.2429886 5-5 5h-38c-2.7570105 0-5-2.2429886-5-5v-48c0-2.7570114 2.2429895-5 5-5zm0-1h-38c-3.3137102 0-6 2.6862907-6 6v48c0 3.3137093 2.6862898 6 6 6h38c3.3137093 0 6-2.6862907 6-6v-48c0-3.3137093-2.6862907-6-6-6z" fill="#3e3a39"/><path d="m51 14.5h-38c-.5522852 0-1-.4477148-1-1v-5.5c0-.5522847.4477148-1 1-1h38c.5522842 0 1 .4477153 1 1v5.5c0 .5522852-.4477158 1-1 1z" fill="#f5f5f5"/><path d="m51 7c.5522804 0 1 .4477196 1 1v5.5c0 .5522804-.4477196 1-1 1h-38c-.55229 0-1-.4477196-1-1v-5.5c0-.5522804.44771-1 1-1zm0-1h-38c-1.1028004 0-2 .8972015-2 2v5.5c0 1.1027985.8971996 2 2 2h38c1.1027985 0 2-.8972015 2-2v-5.5c0-1.1027985-.8972015-2-2-2z" fill="url(#d)"/><path d="m19 27h-6c-.5522852 0-1-.4477158-1-1v-5.5c0-.5522842.4477148-1 1-1h6c.5522842 0 1 .4477158 1 1v5.5c0 .5522842-.4477158 1-1 1z" fill="#f5f5f5"/><path d="m19 27.5h-6c-.8271484 0-1.5-.6728516-1.5-1.5v-5.5c0-.8271484.6728516-1.5 1.5-1.5h6c.8271484 0 1.5.6728516 1.5 1.5v5.5c0 .8271484-.6728516 1.5-1.5 1.5zm-6-7.5c-.2758789 0-.5.2241211-.5.5v5.5c0 .2758789.2241211.5.5.5h6c.2758789 0 .5-.2241211.5-.5v-5.5c0-.2758789-.2241211-.5-.5-.5z" fill="url(#e)"/><path d="m29.666666 27h-6c-.5522842 0-1-.4477158-1-1v-5.5c0-.5522842.4477158-1 1-1h6c.5522861 0 1 .4477158 1 1v5.5c0 .5522842-.4477138 1-1 1z" fill="#f5f5f5"/><path d="m29.6665039 27.5h-6c-.8271484 0-1.5-.6728516-1.5-1.5v-5.5c0-.8271484.6728516-1.5 1.5-1.5h6c.8271484 0 1.5.6728516 1.5 1.5v5.5c0 .8271484-.6728516 1.5-1.5 1.5zm-6-7.5c-.2758789 0-.5.2241211-.5.5v5.5c0 .2758789.2241211.5.5.5h6c.2758789 0 .5-.2241211.5-.5v-5.5c0-.2758789-.2241211-.5-.5-.5z" fill="url(#f)"/><path d="m40.3333321 27h-6c-.5522842 0-1-.4477158-1-1v-5.5c0-.5522842.4477158-1 1-1h6c.5522842 0 1 .4477158 1 1v5.5c0 .5522842-.4477158 1-1 1z" fill="#f5f5f5"/><path d="m40.3330078 27.5h-6c-.8271484 0-1.5-.6728516-1.5-1.5v-5.5c0-.8271484.6728516-1.5 1.5-1.5h6c.8271484 0 1.5.6728516 1.5 1.5v5.5c0 .8271484-.6728515 1.5-1.5 1.5zm-6-7.5c-.2753906 0-.5.2241211-.5.5v5.5c0 .2758789.2246094.5.5.5h6c.2753906 0 .5-.2241211.5-.5v-5.5c0-.2758789-.2246094-.5-.5-.5z" fill="url(#g)"/><path d="m19 37h-6c-.5522852 0-1-.4477158-1-1v-5.5c0-.5522842.4477148-1 1-1h6c.5522842 0 1 .4477158 1 1v5.5c0 .5522842-.4477158 1-1 1z" fill="#f5f5f5"/><path d="m19 37.5h-6c-.8271484 0-1.5-.6728516-1.5-1.5v-5.5c0-.8271484.6728516-1.5 1.5-1.5h6c.8271484 0 1.5.6728516 1.5 1.5v5.5c0 .8271484-.6728516 1.5-1.5 1.5zm-6-7.5c-.2758789 0-.5.2241211-.5.5v5.5c0 .2753906.2241211.5.5.5h6c.2758789 0 .5-.2246094.5-.5v-5.5c0-.2758789-.2241211-.5-.5-.5z" fill="url(#h)"/><path d="m29.666666 37h-6c-.5522842 0-1-.4477158-1-1v-5.5c0-.5522842.4477158-1 1-1h6c.5522861 0 1 .4477158 1 1v5.5c0 .5522842-.4477138 1-1 1z" fill="#f5f5f5"/><path d="m29.6665039 37.5h-6c-.8271484 0-1.5-.6728516-1.5-1.5v-5.5c0-.8271484.6728516-1.5 1.5-1.5h6c.8271484 0 1.5.6728516 1.5 1.5v5.5c0 .8271484-.6728516 1.5-1.5 1.5zm-6-7.5c-.2758789 0-.5.2241211-.5.5v5.5c0 .2753906.2241211.5.5.5h6c.2758789 0 .5-.2246094.5-.5v-5.5c0-.2758789-.2241211-.5-.5-.5z" fill="url(#i)"/><path d="m40.3333321 37h-6c-.5522842 0-1-.4477158-1-1v-5.5c0-.5522842.4477158-1 1-1h6c.5522842 0 1 .4477158 1 1v5.5c0 .5522842-.4477158 1-1 1z" fill="#f5f5f5"/><path d="m40.3330078 37.5h-6c-.8271484 0-1.5-.6728516-1.5-1.5v-5.5c0-.8271484.6728516-1.5 1.5-1.5h6c.8271484 0 1.5.6728516 1.5 1.5v5.5c0 .8271484-.6728515 1.5-1.5 1.5zm-6-7.5c-.2753906 0-.5.2241211-.5.5v5.5c0 .2753906.2246094.5.5.5h6c.2753906 0 .5-.2246094.5-.5v-5.5c0-.2758789-.2246094-.5-.5-.5z" fill="url(#j)"/><path d="m19 47h-6c-.5522852 0-1-.4477158-1-1v-5.5c0-.5522842.4477148-1 1-1h6c.5522842 0 1 .4477158 1 1v5.5c0 .5522842-.4477158 1-1 1z" fill="#f5f5f5"/><path d="m19 47.5h-6c-.8271484 0-1.5-.6728516-1.5-1.5v-5.5c0-.8271484.6728516-1.5 1.5-1.5h6c.8271484 0 1.5.6728516 1.5 1.5v5.5c0 .8271484-.6728516 1.5-1.5 1.5zm-6-7.5c-.2758789 0-.5.2246094-.5.5v5.5c0 .2753906.2241211.5.5.5h6c.2758789 0 .5-.2246094.5-.5v-5.5c0-.2753906-.2241211-.5-.5-.5z" fill="url(#k)"/><path d="m29.666666 47h-6c-.5522842 0-1-.4477158-1-1v-5.5c0-.5522842.4477158-1 1-1h6c.5522861 0 1 .4477158 1 1v5.5c0 .5522842-.4477138 1-1 1z" fill="#f5f5f5"/><path d="m29.6665039 47.5h-6c-.8271484 0-1.5-.6728516-1.5-1.5v-5.5c0-.8271484.6728516-1.5 1.5-1.5h6c.8271484 0 1.5.6728516 1.5 1.5v5.5c0 .8271484-.6728516 1.5-1.5 1.5zm-6-7.5c-.2758789 0-.5.2246094-.5.5v5.5c0 .2753906.2241211.5.5.5h6c.2758789 0 .5-.2246094.5-.5v-5.5c0-.2753906-.2241211-.5-.5-.5z" fill="url(#l)"/><path d="m40.3333321 47h-6c-.5522842 0-1-.4477158-1-1v-5.5c0-.5522842.4477158-1 1-1h6c.5522842 0 1 .4477158 1 1v5.5c0 .5522842-.4477158 1-1 1z" fill="#f5f5f5"/><path d="m40.3330078 47.5h-6c-.8271484 0-1.5-.6728516-1.5-1.5v-5.5c0-.8271484.6728516-1.5 1.5-1.5h6c.8271484 0 1.5.6728516 1.5 1.5v5.5c0 .8271484-.6728515 1.5-1.5 1.5zm-6-7.5c-.2753906 0-.5.2246094-.5.5v5.5c0 .2753906.2246094.5.5.5h6c.2753906 0 .5-.2246094.5-.5v-5.5c0-.2753906-.2246094-.5-.5-.5z" fill="url(#m)"/><path d="m19 57h-6c-.5522852 0-1-.4477158-1-1v-5.5c0-.5522842.4477148-1 1-1h6c.5522842 0 1 .4477158 1 1v5.5c0 .5522842-.4477158 1-1 1z" fill="#f5f5f5"/><path d="m19 57.5h-6c-.8271484 0-1.5-.6728516-1.5-1.5v-5.5c0-.8271484.6728516-1.5 1.5-1.5h6c.8271484 0 1.5.6728516 1.5 1.5v5.5c0 .8271484-.6728516 1.5-1.5 1.5zm-6-7.5c-.2758789 0-.5.2246094-.5.5v5.5c0 .2753906.2241211.5.5.5h6c.2758789 0 .5-.2246094.5-.5v-5.5c0-.2753906-.2241211-.5-.5-.5z" fill="url(#n)"/><path d="m29.666666 57h-6c-.5522842 0-1-.4477158-1-1v-5.5c0-.5522842.4477158-1 1-1h6c.5522861 0 1 .4477158 1 1v5.5c0 .5522842-.4477138 1-1 1z" fill="#f5f5f5"/><path d="m29.6665039 57.5h-6c-.8271484 0-1.5-.6728516-1.5-1.5v-5.5c0-.8271484.6728516-1.5 1.5-1.5h6c.8271484 0 1.5.6728516 1.5 1.5v5.5c0 .8271484-.6728516 1.5-1.5 1.5zm-6-7.5c-.2758789 0-.5.2246094-.5.5v5.5c0 .2753906.2241211.5.5.5h6c.2758789 0 .5-.2246094.5-.5v-5.5c0-.2753906-.2241211-.5-.5-.5z" fill="url(#o)"/><path d="m40.3333321 57h-6c-.5522842 0-1-.4477158-1-1v-5.5c0-.5522842.4477158-1 1-1h6c.5522842 0 1 .4477158 1 1v5.5c0 .5522842-.4477158 1-1 1z" fill="#f5f5f5"/><path d="m40.3330078 57.5h-6c-.8271484 0-1.5-.6728516-1.5-1.5v-5.5c0-.8271484.6728516-1.5 1.5-1.5h6c.8271484 0 1.5.6728516 1.5 1.5v5.5c0 .8271484-.6728515 1.5-1.5 1.5zm-6-7.5c-.2753906 0-.5.2246094-.5.5v5.5c0 .2753906.2246094.5.5.5h6c.2753906 0 .5-.2246094.5-.5v-5.5c0-.2753906-.2246094-.5-.5-.5z" fill="url(#p)"/><path d="m51 39.5h-6c-.5522842 0-1 .4477158-1 1v15.5c0 .5522842.4477158 1 1 1h6c.5522842 0 1-.4477158 1-1v-15.5c0-.5522842-.4477158-1-1-1z" fill="#f5f5f5"/><path d="m51 57.5h-6c-.8271484 0-1.5-.6728516-1.5-1.5v-15.5c0-.8271484.6728516-1.5 1.5-1.5h6c.8271484 0 1.5.6728516 1.5 1.5v15.5c0 .8271484-.6728516 1.5-1.5 1.5zm-6-17.5c-.2753906 0-.5.2246094-.5.5v15.5c0 .2753906.2246094.5.5.5h6c.2753906 0 .5-.2246094.5-.5v-15.5c0-.2753906-.2246094-.5-.5-.5z" fill="url(#q)"/><path d="m51 27h-6c-.5522842 0-1-.4477158-1-1v-5.5c0-.5522842.4477158-1 1-1h6c.5522842 0 1 .4477158 1 1v5.5c0 .5522842-.4477158 1-1 1z" fill="#f5f5f5"/><path d="m51 27.5h-6c-.8271484 0-1.5-.6728516-1.5-1.5v-5.5c0-.8271484.6728516-1.5 1.5-1.5h6c.8271484 0 1.5.6728516 1.5 1.5v5.5c0 .8271484-.6728516 1.5-1.5 1.5zm-6-7.5c-.2753906 0-.5.2241211-.5.5v5.5c0 .2758789.2246094.5.5.5h6c.2753906 0 .5-.2241211.5-.5v-5.5c0-.2758789-.2246094-.5-.5-.5z" fill="url(#r)"/><path d="m51 37h-6c-.5522842 0-1-.4477158-1-1v-5.5c0-.5522842.4477158-1 1-1h6c.5522842 0 1 .4477158 1 1v5.5c0 .5522842-.4477158 1-1 1z" fill="#f5f5f5"/><path d="m51 37.5h-6c-.8271484 0-1.5-.6728516-1.5-1.5v-5.5c0-.8271484.6728516-1.5 1.5-1.5h6c.8271484 0 1.5.6728516 1.5 1.5v5.5c0 .8271484-.6728516 1.5-1.5 1.5zm-6-7.5c-.2753906 0-.5.2241211-.5.5v5.5c0 .2753906.2246094.5.5.5h6c.2753906 0 .5-.2246094.5-.5v-5.5c0-.2758789-.2246094-.5-.5-.5z" fill="url(#s)"/><path d="m47.473782 8.416667h2.099251v4.916667h-2.099251z" fill="#f5f5f5"/><path d="m49.5732422 13.8334961h-2.0996094c-.2763672 0-.5-.2236328-.5-.5v-4.9169922c0-.2763672.2236328-.5.5-.5h2.0996094c.2763672 0 .5.2236328.5.5v4.9169922c0 .2763672-.2236328.5-.5.5zm-1.5996094-1h1.0996094v-3.9169922h-1.0996094z" fill="#717071"/><path d="m45.625 8.416667v4.916666" fill="#f5f5f5"/><path d="m45.625 13.8334961c-.2763672 0-.5-.2236328-.5-.5v-4.9169922c0-.2763672.2236328-.5.5-.5s.5.2236328.5.5v4.9169922c0 .2763672-.2236328.5-.5.5z" fill="#717071"/></svg>